<mxfile host="app.diagrams.net" modified="2023-08-28T18:35:36.695Z" agent="Mozilla/5.0 (Windows NT 10.0; Win64; x64) AppleWebKit/537.36 (KHTML, like Gecko) Chrome/116.0.0.0 Safari/537.36" etag="eVvenypXZKpHIqr4Pm-R" version="21.6.9" type="device">
  <diagram name="PÃ¡gina-1" id="RCO1DmmMlwUS9E8ufAjP">
    <mxGraphModel dx="1434" dy="758" grid="1" gridSize="10" guides="1" tooltips="1" connect="1" arrows="1" fold="1" page="1" pageScale="1" pageWidth="827" pageHeight="1169" math="0" shadow="0">
      <root>
        <mxCell id="0" />
        <mxCell id="1" parent="0" />
        <mxCell id="WddKenC-Hs3ldfxeq6Ff-1" value="Cardapio" style="swimlane;fontStyle=1;align=center;verticalAlign=top;childLayout=stackLayout;horizontal=1;startSize=26;horizontalStack=0;resizeParent=1;resizeParentMax=0;resizeLast=0;collapsible=1;marginBottom=0;whiteSpace=wrap;html=1;fillColor=#fff2cc;strokeColor=#d6b656;" vertex="1" parent="1">
          <mxGeometry x="320" y="540" width="160" height="170" as="geometry" />
        </mxCell>
        <mxCell id="WddKenC-Hs3ldfxeq6Ff-2" value="&lt;div&gt;- id: Int;&lt;/div&gt;&lt;div&gt;- produto: String;&lt;/div&gt;&lt;div&gt;- descricao: String;&lt;/div&gt;&lt;div&gt;- preco: float;&lt;/div&gt;&lt;div&gt;- itens: List&amp;lt;Itens&amp;gt;&lt;/div&gt;" style="text;strokeColor=#d6b656;fillColor=#fff2cc;align=left;verticalAlign=top;spacingLeft=4;spacingRight=4;overflow=hidden;rotatable=0;points=[[0,0.5],[1,0.5]];portConstraint=eastwest;whiteSpace=wrap;html=1;" vertex="1" parent="WddKenC-Hs3ldfxeq6Ff-1">
          <mxGeometry y="26" width="160" height="84" as="geometry" />
        </mxCell>
        <mxCell id="WddKenC-Hs3ldfxeq6Ff-3" value="" style="line;strokeWidth=1;fillColor=none;align=left;verticalAlign=middle;spacingTop=-1;spacingLeft=3;spacingRight=3;rotatable=0;labelPosition=right;points=[];portConstraint=eastwest;strokeColor=inherit;" vertex="1" parent="WddKenC-Hs3ldfxeq6Ff-1">
          <mxGeometry y="110" width="160" height="8" as="geometry" />
        </mxCell>
        <mxCell id="WddKenC-Hs3ldfxeq6Ff-4" value="&lt;b&gt;+ gets &amp;amp;&amp;amp; sets;&lt;br&gt;+ CRUD;&lt;/b&gt;&lt;br&gt;+ read(id): List&amp;lt;Cardapio&amp;gt;;" style="text;strokeColor=none;fillColor=none;align=left;verticalAlign=top;spacingLeft=4;spacingRight=4;overflow=hidden;rotatable=0;points=[[0,0.5],[1,0.5]];portConstraint=eastwest;whiteSpace=wrap;html=1;" vertex="1" parent="WddKenC-Hs3ldfxeq6Ff-1">
          <mxGeometry y="118" width="160" height="52" as="geometry" />
        </mxCell>
        <mxCell id="WddKenC-Hs3ldfxeq6Ff-5" value="Motoboy" style="swimlane;fontStyle=1;align=center;verticalAlign=top;childLayout=stackLayout;horizontal=1;startSize=26;horizontalStack=0;resizeParent=1;resizeParentMax=0;resizeLast=0;collapsible=1;marginBottom=0;whiteSpace=wrap;html=1;fillColor=#fff2cc;strokeColor=#d6b656;" vertex="1" parent="1">
          <mxGeometry x="60" y="120" width="160" height="180" as="geometry" />
        </mxCell>
        <mxCell id="WddKenC-Hs3ldfxeq6Ff-6" value="&lt;div&gt;- id: Int;&lt;/div&gt;&lt;div&gt;- nome: String;&lt;/div&gt;&lt;div&gt;- placa: String;&lt;/div&gt;&lt;div&gt;- modelo: String&lt;/div&gt;&lt;div&gt;&lt;span style=&quot;background-color: initial;&quot;&gt;- pedidos: List&amp;lt;Pedido&amp;gt;&lt;/span&gt;&lt;/div&gt;" style="text;strokeColor=none;fillColor=none;align=left;verticalAlign=top;spacingLeft=4;spacingRight=4;overflow=hidden;rotatable=0;points=[[0,0.5],[1,0.5]];portConstraint=eastwest;whiteSpace=wrap;html=1;" vertex="1" parent="WddKenC-Hs3ldfxeq6Ff-5">
          <mxGeometry y="26" width="160" height="84" as="geometry" />
        </mxCell>
        <mxCell id="WddKenC-Hs3ldfxeq6Ff-7" value="" style="line;strokeWidth=1;fillColor=none;align=left;verticalAlign=middle;spacingTop=-1;spacingLeft=3;spacingRight=3;rotatable=0;labelPosition=right;points=[];portConstraint=eastwest;strokeColor=inherit;" vertex="1" parent="WddKenC-Hs3ldfxeq6Ff-5">
          <mxGeometry y="110" width="160" height="8" as="geometry" />
        </mxCell>
        <mxCell id="WddKenC-Hs3ldfxeq6Ff-8" value="&lt;b&gt;+ gets &amp;amp;&amp;amp; sets;&lt;br&gt;+ CRUD;&lt;/b&gt;&lt;br&gt;+ read(id): List&amp;lt;Motoboy&amp;gt;;" style="text;strokeColor=none;fillColor=none;align=left;verticalAlign=top;spacingLeft=4;spacingRight=4;overflow=hidden;rotatable=0;points=[[0,0.5],[1,0.5]];portConstraint=eastwest;whiteSpace=wrap;html=1;" vertex="1" parent="WddKenC-Hs3ldfxeq6Ff-5">
          <mxGeometry y="118" width="160" height="62" as="geometry" />
        </mxCell>
        <mxCell id="WddKenC-Hs3ldfxeq6Ff-9" value="Cliente" style="swimlane;fontStyle=1;align=center;verticalAlign=top;childLayout=stackLayout;horizontal=1;startSize=26;horizontalStack=0;resizeParent=1;resizeParentMax=0;resizeLast=0;collapsible=1;marginBottom=0;whiteSpace=wrap;html=1;fillColor=#fff2cc;strokeColor=#d6b656;" vertex="1" parent="1">
          <mxGeometry x="576" y="202" width="210" height="220" as="geometry" />
        </mxCell>
        <mxCell id="WddKenC-Hs3ldfxeq6Ff-10" value="&lt;div&gt;- id: Int;&lt;/div&gt;&lt;div&gt;- cpf: String;&lt;/div&gt;&lt;div&gt;- nome: String;&lt;/div&gt;&lt;div&gt;- telefones: String;&lt;/div&gt;&lt;div&gt;- enderecoCEP: String;&lt;br&gt;&lt;/div&gt;&lt;div&gt;- enderecoNumero: String;&lt;br&gt;&lt;/div&gt;&lt;div&gt;- enderecoComplemento: String;&lt;br&gt;&lt;/div&gt;&lt;div&gt;&lt;span style=&quot;background-color: initial;&quot;&gt;- pedidos: List&amp;lt;Pedido&amp;gt;&lt;/span&gt;&lt;/div&gt;" style="text;strokeColor=none;fillColor=none;align=left;verticalAlign=top;spacingLeft=4;spacingRight=4;overflow=hidden;rotatable=0;points=[[0,0.5],[1,0.5]];portConstraint=eastwest;whiteSpace=wrap;html=1;" vertex="1" parent="WddKenC-Hs3ldfxeq6Ff-9">
          <mxGeometry y="26" width="210" height="124" as="geometry" />
        </mxCell>
        <mxCell id="WddKenC-Hs3ldfxeq6Ff-11" value="" style="line;strokeWidth=1;fillColor=none;align=left;verticalAlign=middle;spacingTop=-1;spacingLeft=3;spacingRight=3;rotatable=0;labelPosition=right;points=[];portConstraint=eastwest;strokeColor=inherit;" vertex="1" parent="WddKenC-Hs3ldfxeq6Ff-9">
          <mxGeometry y="150" width="210" height="8" as="geometry" />
        </mxCell>
        <mxCell id="WddKenC-Hs3ldfxeq6Ff-12" value="&lt;b&gt;+ gets &amp;amp;&amp;amp; sets;&lt;br&gt;+ CRUD;&lt;/b&gt;&lt;br&gt;+ read(id,nome):List&amp;lt;Cliente&amp;gt;;" style="text;strokeColor=none;fillColor=none;align=left;verticalAlign=top;spacingLeft=4;spacingRight=4;overflow=hidden;rotatable=0;points=[[0,0.5],[1,0.5]];portConstraint=eastwest;whiteSpace=wrap;html=1;" vertex="1" parent="WddKenC-Hs3ldfxeq6Ff-9">
          <mxGeometry y="158" width="210" height="62" as="geometry" />
        </mxCell>
        <mxCell id="WddKenC-Hs3ldfxeq6Ff-13" value="Pedidos" style="swimlane;fontStyle=1;align=center;verticalAlign=top;childLayout=stackLayout;horizontal=1;startSize=26;horizontalStack=0;resizeParent=1;resizeParentMax=0;resizeLast=0;collapsible=1;marginBottom=0;whiteSpace=wrap;html=1;fillColor=#fff2cc;strokeColor=#d6b656;" vertex="1" parent="1">
          <mxGeometry x="300" y="220" width="210" height="300" as="geometry" />
        </mxCell>
        <mxCell id="WddKenC-Hs3ldfxeq6Ff-14" value="&lt;div&gt;- id: Int;&lt;/div&gt;&lt;div&gt;- clienteId: int;&lt;/div&gt;&lt;div&gt;- motoboyId: int;&lt;br&gt;&lt;/div&gt;&lt;div&gt;- dataPedido: DateTime;&lt;br&gt;&lt;/div&gt;&lt;div&gt;&lt;span style=&quot;background-color: initial;&quot;&gt;- dataCozinha: DateTime;&lt;/span&gt;&lt;br&gt;&lt;/div&gt;&lt;div&gt;- dataEntrega: DateTime;&lt;span style=&quot;background-color: initial;&quot;&gt;&lt;br&gt;&lt;/span&gt;&lt;/div&gt;&lt;div&gt;- valorPedido: float;&lt;/div&gt;&lt;div&gt;- valorEntrega: float&lt;/div&gt;&lt;div&gt;- cliente: Cliente;&lt;/div&gt;&lt;div&gt;- motoboy: Motoboy&lt;/div&gt;&lt;div&gt;- itens: List&amp;lt;Itens&amp;gt;&lt;/div&gt;" style="text;strokeColor=none;fillColor=none;align=left;verticalAlign=top;spacingLeft=4;spacingRight=4;overflow=hidden;rotatable=0;points=[[0,0.5],[1,0.5]];portConstraint=eastwest;whiteSpace=wrap;html=1;" vertex="1" parent="WddKenC-Hs3ldfxeq6Ff-13">
          <mxGeometry y="26" width="210" height="164" as="geometry" />
        </mxCell>
        <mxCell id="WddKenC-Hs3ldfxeq6Ff-15" value="" style="line;strokeWidth=1;fillColor=none;align=left;verticalAlign=middle;spacingTop=-1;spacingLeft=3;spacingRight=3;rotatable=0;labelPosition=right;points=[];portConstraint=eastwest;strokeColor=inherit;" vertex="1" parent="WddKenC-Hs3ldfxeq6Ff-13">
          <mxGeometry y="190" width="210" height="8" as="geometry" />
        </mxCell>
        <mxCell id="WddKenC-Hs3ldfxeq6Ff-16" value="&lt;b&gt;+ gets &amp;amp;&amp;amp; sets&lt;br&gt;+ CRUD&lt;/b&gt;&lt;br&gt;+ read(id):List&amp;lt;Pedido&amp;gt;&lt;br&gt;+ readCozinha():List&amp;lt;Pedido&amp;gt;&lt;br&gt;+ readEntrega():List&amp;lt;Pedido&amp;gt;&lt;br&gt;+ readHoje():List&amp;lt;Pedido&amp;gt;" style="text;strokeColor=none;fillColor=none;align=left;verticalAlign=top;spacingLeft=4;spacingRight=4;overflow=hidden;rotatable=0;points=[[0,0.5],[1,0.5]];portConstraint=eastwest;whiteSpace=wrap;html=1;" vertex="1" parent="WddKenC-Hs3ldfxeq6Ff-13">
          <mxGeometry y="198" width="210" height="102" as="geometry" />
        </mxCell>
        <mxCell id="WddKenC-Hs3ldfxeq6Ff-17" value="Itens" style="swimlane;fontStyle=1;align=center;verticalAlign=top;childLayout=stackLayout;horizontal=1;startSize=26;horizontalStack=0;resizeParent=1;resizeParentMax=0;resizeLast=0;collapsible=1;marginBottom=0;whiteSpace=wrap;html=1;fillColor=#fff2cc;strokeColor=#d6b656;" vertex="1" parent="1">
          <mxGeometry x="70" y="380" width="160" height="210" as="geometry" />
        </mxCell>
        <mxCell id="WddKenC-Hs3ldfxeq6Ff-18" value="&lt;div&gt;- id: Int;&lt;/div&gt;&lt;div&gt;- pedidoId: int;&lt;/div&gt;&lt;div&gt;- cardapioId int;&lt;/div&gt;&lt;div&gt;&lt;span style=&quot;background-color: initial;&quot;&gt;- quantidade: int;&lt;/span&gt;&lt;/div&gt;&lt;div&gt;&lt;span style=&quot;background-color: initial;&quot;&gt;- valor: floar;&lt;/span&gt;&lt;/div&gt;&lt;div&gt;&lt;span style=&quot;background-color: initial;&quot;&gt;- pedido: Pedido;&lt;/span&gt;&lt;/div&gt;&lt;div&gt;&lt;span style=&quot;background-color: initial;&quot;&gt;- cardapio: Cardapio&lt;/span&gt;&lt;/div&gt;" style="text;strokeColor=none;fillColor=none;align=left;verticalAlign=top;spacingLeft=4;spacingRight=4;overflow=hidden;rotatable=0;points=[[0,0.5],[1,0.5]];portConstraint=eastwest;whiteSpace=wrap;html=1;" vertex="1" parent="WddKenC-Hs3ldfxeq6Ff-17">
          <mxGeometry y="26" width="160" height="114" as="geometry" />
        </mxCell>
        <mxCell id="WddKenC-Hs3ldfxeq6Ff-19" value="" style="line;strokeWidth=1;fillColor=none;align=left;verticalAlign=middle;spacingTop=-1;spacingLeft=3;spacingRight=3;rotatable=0;labelPosition=right;points=[];portConstraint=eastwest;strokeColor=inherit;" vertex="1" parent="WddKenC-Hs3ldfxeq6Ff-17">
          <mxGeometry y="140" width="160" height="8" as="geometry" />
        </mxCell>
        <mxCell id="WddKenC-Hs3ldfxeq6Ff-20" value="&lt;b&gt;+ gets &amp;amp;&amp;amp; sets;&lt;br&gt;+ CRUD;&lt;/b&gt;&lt;br&gt;+ read(id): List&amp;lt;Itens&amp;gt;;" style="text;strokeColor=none;fillColor=none;align=left;verticalAlign=top;spacingLeft=4;spacingRight=4;overflow=hidden;rotatable=0;points=[[0,0.5],[1,0.5]];portConstraint=eastwest;whiteSpace=wrap;html=1;" vertex="1" parent="WddKenC-Hs3ldfxeq6Ff-17">
          <mxGeometry y="148" width="160" height="62" as="geometry" />
        </mxCell>
        <mxCell id="WddKenC-Hs3ldfxeq6Ff-22" value="RestauranteXPTO&lt;br style=&quot;font-size: 14px;&quot;&gt;UML (Unified Modeling Language)&lt;br style=&quot;font-size: 14px;&quot;&gt;DC (Diagrama de Classes)" style="text;html=1;strokeColor=none;fillColor=none;align=center;verticalAlign=middle;whiteSpace=wrap;rounded=0;fontSize=14;" vertex="1" parent="1">
          <mxGeometry x="299" y="40" width="230" height="50" as="geometry" />
        </mxCell>
        <mxCell id="WddKenC-Hs3ldfxeq6Ff-25" value="1..1" style="endArrow=diamondThin;endFill=1;endSize=24;html=1;rounded=0;exitX=1;exitY=0.5;exitDx=0;exitDy=0;entryX=0.013;entryY=0.417;entryDx=0;entryDy=0;entryPerimeter=0;edgeStyle=orthogonalEdgeStyle;" edge="1" parent="1" target="WddKenC-Hs3ldfxeq6Ff-2" source="WddKenC-Hs3ldfxeq6Ff-18">
          <mxGeometry width="160" relative="1" as="geometry">
            <mxPoint x="360" y="560" as="sourcePoint" />
            <mxPoint x="300" y="640" as="targetPoint" />
          </mxGeometry>
        </mxCell>
        <mxCell id="WddKenC-Hs3ldfxeq6Ff-27" value="0..1" style="endArrow=diamondThin;endFill=0;endSize=24;html=1;rounded=0;entryX=-0.005;entryY=0.444;entryDx=0;entryDy=0;entryPerimeter=0;exitX=1;exitY=0.5;exitDx=0;exitDy=0;edgeStyle=orthogonalEdgeStyle;" edge="1" parent="1" source="WddKenC-Hs3ldfxeq6Ff-14" target="WddKenC-Hs3ldfxeq6Ff-10">
          <mxGeometry width="160" relative="1" as="geometry">
            <mxPoint x="530" y="310" as="sourcePoint" />
            <mxPoint x="690" y="310" as="targetPoint" />
          </mxGeometry>
        </mxCell>
        <mxCell id="WddKenC-Hs3ldfxeq6Ff-28" value="1..0" style="endArrow=diamondThin;endFill=0;endSize=24;html=1;rounded=0;entryX=1;entryY=0.5;entryDx=0;entryDy=0;exitX=0;exitY=0.5;exitDx=0;exitDy=0;edgeStyle=orthogonalEdgeStyle;" edge="1" parent="1" source="WddKenC-Hs3ldfxeq6Ff-14" target="WddKenC-Hs3ldfxeq6Ff-6">
          <mxGeometry width="160" relative="1" as="geometry">
            <mxPoint x="510" y="338" as="sourcePoint" />
            <mxPoint x="569" y="211" as="targetPoint" />
          </mxGeometry>
        </mxCell>
        <mxCell id="WddKenC-Hs3ldfxeq6Ff-29" value="*..1" style="endArrow=diamondThin;endFill=1;endSize=24;html=1;rounded=0;exitX=0;exitY=0.5;exitDx=0;exitDy=0;entryX=0.5;entryY=0;entryDx=0;entryDy=0;edgeStyle=orthogonalEdgeStyle;" edge="1" parent="1" source="WddKenC-Hs3ldfxeq6Ff-14" target="WddKenC-Hs3ldfxeq6Ff-17">
          <mxGeometry width="160" relative="1" as="geometry">
            <mxPoint x="230" y="583" as="sourcePoint" />
            <mxPoint x="502" y="641" as="targetPoint" />
          </mxGeometry>
        </mxCell>
        <mxCell id="WddKenC-Hs3ldfxeq6Ff-30" value="*..0" style="endArrow=open;endFill=1;endSize=12;html=1;rounded=0;entryX=1.01;entryY=0.122;entryDx=0;entryDy=0;entryPerimeter=0;exitX=0;exitY=0.306;exitDx=0;exitDy=0;exitPerimeter=0;" edge="1" parent="1" source="WddKenC-Hs3ldfxeq6Ff-10" target="WddKenC-Hs3ldfxeq6Ff-14">
          <mxGeometry width="160" relative="1" as="geometry">
            <mxPoint x="590" y="248" as="sourcePoint" />
            <mxPoint x="690" y="210" as="targetPoint" />
          </mxGeometry>
        </mxCell>
        <mxCell id="WddKenC-Hs3ldfxeq6Ff-31" value="0..*" style="endArrow=open;endFill=1;endSize=12;html=1;rounded=0;entryX=0.5;entryY=0;entryDx=0;entryDy=0;exitX=1;exitY=0.321;exitDx=0;exitDy=0;exitPerimeter=0;edgeStyle=orthogonalEdgeStyle;" edge="1" parent="1" source="WddKenC-Hs3ldfxeq6Ff-6" target="WddKenC-Hs3ldfxeq6Ff-13">
          <mxGeometry width="160" relative="1" as="geometry">
            <mxPoint x="598" y="258" as="sourcePoint" />
            <mxPoint x="520" y="258" as="targetPoint" />
            <Array as="points">
              <mxPoint x="220" y="170" />
              <mxPoint x="405" y="170" />
            </Array>
          </mxGeometry>
        </mxCell>
      </root>
    </mxGraphModel>
  </diagram>
</mxfile>
